<?xml version="1.0" standalone="no"?>
<!DOCTYPE svg PUBLIC "-//W3C//DTD SVG 20010904//EN"
 "http://www.w3.org/TR/2001/REC-SVG-20010904/DTD/svg10.dtd">
<svg version="1.0" xmlns="http://www.w3.org/2000/svg"
 width="96.000000pt" height="96.000000pt" viewBox="0 0 96.000000 96.000000"
 preserveAspectRatio="xMidYMid meet">

<g transform="translate(0.000000,96.000000) scale(0.100000,-0.100000)"
fill="#000000" stroke="none">
<path d="M241 796 c-129 -78 -237 -148 -239 -156 -5 -13 10 -12 51 5 16 7 17
-10 17 -264 l0 -271 272 2 c206 2 272 6 276 16 3 9 -53 12 -257 12 l-261 0 0
268 0 267 188 113 c103 62 190 114 194 115 4 1 31 -13 60 -30 37 -23 63 -48
83 -83 16 -27 35 -50 42 -50 15 0 17 26 3 35 -5 3 -10 10 -10 15 0 5 45 -18
100 -52 l100 -61 0 -269 0 -268 -25 0 c-16 0 -25 -6 -25 -15 0 -11 11 -15 40
-15 l40 0 0 271 c0 254 1 271 18 264 89 -37 63 -1 -51 68 l-97 60 0 74 0 74
-62 -3 c-60 -3 -63 -4 -66 -30 -2 -16 -6 -28 -9 -28 -3 0 -34 18 -69 40 -35
22 -67 40 -71 39 -5 0 -113 -65 -242 -143z m489 49 c0 -25 -4 -45 -9 -45 -17
0 -61 42 -61 59 0 24 9 31 42 31 27 0 28 -2 28 -45z"/>
<path d="M236 732 c-7 -12 21 -62 35 -62 15 0 10 27 -9 51 -13 15 -21 18 -26
11z"/>
<path d="M435 585 c-110 -69 -207 -132 -215 -140 -12 -12 -12 -21 -2 -47 10
-26 9 -35 -3 -48 -8 -9 -15 -25 -15 -36 0 -29 68 -124 88 -124 10 0 72 34 137
75 66 41 124 74 130 72 5 -2 18 -18 28 -35 14 -25 16 -34 6 -49 -10 -17 -2
-35 56 -126 36 -59 69 -107 71 -107 15 0 84 47 84 58 0 6 -28 57 -62 112 -54
86 -66 100 -86 97 -17 -3 -27 4 -44 35 -36 63 -52 61 -189 -26 -66 -42 -123
-76 -127 -76 -9 0 -62 84 -62 99 0 18 24 13 43 -9 9 -11 25 -20 34 -20 10 0
112 60 228 133 216 136 236 155 205 193 -10 11 -10 17 0 29 15 18 5 36 -16 28
-9 -3 -21 3 -30 16 -8 11 -25 21 -38 21 -12 0 -112 -56 -221 -125z m258 51
c15 -24 27 -47 27 -52 0 -14 -407 -267 -418 -260 -16 10 -64 97 -58 103 19 19
394 251 406 252 8 1 27 -19 43 -43z m23 -468 c48 -75 52 -84 37 -95 -9 -7 -20
-13 -24 -13 -8 0 -109 157 -109 170 0 10 33 31 39 24 2 -2 28 -41 57 -86z"/>
<path d="M110 540 c0 -18 55 -100 67 -100 19 0 16 14 -14 65 -25 41 -53 60
-53 35z"/>
</g>
</svg>
