<svg version="1.1" xmlns="http://www.w3.org/2000/svg" xmlns:xlink="http://www.w3.org/1999/xlink" width="96.000000pt" height="96.000000pt" viewBox="0,0,256,256"><g fill="#ffffff" fill-rule="nonzero" stroke="none" stroke-width="1" stroke-linecap="butt" stroke-linejoin="miter" stroke-miterlimit="10" stroke-dasharray="" stroke-dashoffset="0" font-family="none" font-weight="none" font-size="none" text-anchor="none" style="mix-blend-mode: normal"><g transform="translate(-0.32193,-0.12803) scale(2.66667,2.66667)"><g transform="translate(0,96) scale(0.1,-0.1)"><path d="M241,796c-129,-78 -237,-148 -239,-156c-5,-13 10,-12 51,5c16,7 17,-10 17,-264v-271l272,2c206,2 272,6 276,16c3,9 -53,12 -257,12h-261v268v267l188,113c103,62 190,114 194,115c4,1 31,-13 60,-30c37,-23 63,-48 83,-83c16,-27 35,-50 42,-50c15,0 17,26 3,35c-5,3 -10,10 -10,15c0,5 45,-18 100,-52l100,-61v-269v-268h-25c-16,0 -25,-6 -25,-15c0,-11 11,-15 40,-15h40v271c0,254 1,271 18,264c89,-37 63,-1 -51,68l-97,60v74v74l-62,-3c-60,-3 -63,-4 -66,-30c-2,-16 -6,-28 -9,-28c-3,0 -34,18 -69,40c-35,22 -67,40 -71,39c-5,0 -113,-65 -242,-143zM730,845c0,-25 -4,-45 -9,-45c-17,0 -61,42 -61,59c0,24 9,31 42,31c27,0 28,-2 28,-45z"></path><path d="M236,732c-7,-12 21,-62 35,-62c15,0 10,27 -9,51c-13,15 -21,18 -26,11z"></path><path d="M435,585c-110,-69 -207,-132 -215,-140c-12,-12 -12,-21 -2,-47c10,-26 9,-35 -3,-48c-8,-9 -15,-25 -15,-36c0,-29 68,-124 88,-124c10,0 72,34 137,75c66,41 124,74 130,72c5,-2 18,-18 28,-35c14,-25 16,-34 6,-49c-10,-17 -2,-35 56,-126c36,-59 69,-107 71,-107c15,0 84,47 84,58c0,6 -28,57 -62,112c-54,86 -66,100 -86,97c-17,-3 -27,4 -44,35c-36,63 -52,61 -189,-26c-66,-42 -123,-76 -127,-76c-9,0 -62,84 -62,99c0,18 24,13 43,-9c9,-11 25,-20 34,-20c10,0 112,60 228,133c216,136 236,155 205,193c-10,11 -10,17 0,29c15,18 5,36 -16,28c-9,-3 -21,3 -30,16c-8,11 -25,21 -38,21c-12,0 -112,-56 -221,-125zM693,636c15,-24 27,-47 27,-52c0,-14 -407,-267 -418,-260c-16,10 -64,97 -58,103c19,19 394,251 406,252c8,1 27,-19 43,-43zM716,168c48,-75 52,-84 37,-95c-9,-7 -20,-13 -24,-13c-8,0 -109,157 -109,170c0,10 33,31 39,24c2,-2 28,-41 57,-86z"></path><path d="M110,540c0,-18 55,-100 67,-100c19,0 16,14 -14,65c-25,41 -53,60 -53,35z"></path></g></g></g></svg>