<?xml version="1.0" standalone="no"?>
<!DOCTYPE svg PUBLIC "-//W3C//DTD SVG 20010904//EN"
 "http://www.w3.org/TR/2001/REC-SVG-20010904/DTD/svg10.dtd">
<svg version="1.0" xmlns="http://www.w3.org/2000/svg"
 width="152.000000pt" height="152.000000pt" viewBox="0 0 152.000000 152.000000"
 preserveAspectRatio="xMidYMid meet">
<metadata>
Created by potrace 1.14, written by Peter Selinger 2001-2017
</metadata>
<g transform="translate(0.000000,152.000000) scale(0.100000,-0.100000)"
fill="#000000" stroke="none">
<path d="M725 1467 c-22 -13 -190 -114 -373 -225 -184 -111 -338 -202 -343
-202 -15 0 -10 -40 6 -46 8 -3 30 3 48 15 19 12 36 21 38 21 2 0 3 -188 3
-417 -1 -230 2 -423 7 -428 5 -7 157 -10 431 -9 233 1 426 2 431 3 4 0 7 10 7
21 0 11 -3 21 -7 21 -5 1 -190 2 -413 3 l-405 1 0 420 0 419 120 73 c66 40
127 77 135 82 71 45 326 197 334 200 6 2 13 7 16 12 3 4 43 -16 90 -45 71 -44
92 -63 126 -117 63 -96 76 -111 94 -99 13 8 12 15 -7 50 -12 22 -19 40 -15 40
3 0 76 -44 163 -97 l157 -97 0 -418 c0 -230 -3 -418 -6 -419 -4 0 -22 -2 -41
-4 -80 -8 -58 -52 26 -50 27 1 53 4 59 8 8 4 11 136 10 427 -1 231 1 420 4
420 3 0 20 -9 37 -20 35 -21 66 -17 61 8 -2 8 -73 58 -158 110 l-155 95 1 109
c1 91 -1 110 -15 117 -13 7 -152 9 -182 2 -3 0 -5 -20 -4 -43 1 -24 0 -46 -2
-50 -2 -4 -51 22 -109 58 -59 36 -111 67 -118 70 -6 2 -29 -7 -51 -19z m432
-134 c1 -40 0 -73 -2 -73 -16 0 -87 46 -95 60 -10 18 -11 67 -2 83 2 4 25 7
50 5 l47 -3 2 -72z"/>
<path d="M372 1157 c-13 -15 35 -97 56 -97 25 0 24 31 -2 70 -28 43 -37 47
-54 27z"/>
<path d="M905 1065 c-55 -35 -105 -68 -112 -74 -7 -6 -14 -11 -17 -11 -5 0
-372 -231 -413 -261 -32 -22 -37 -66 -11 -108 16 -25 18 -36 9 -39 -23 -8 -51
-46 -51 -71 0 -28 94 -177 121 -191 10 -6 26 -10 36 -10 10 0 104 54 208 120
105 66 195 120 200 120 6 0 27 -27 48 -60 l37 -61 -25 -22 -26 -22 38 -61 c21
-33 43 -69 50 -80 61 -99 118 -186 129 -195 10 -8 28 -2 72 25 33 20 64 42 70
48 7 10 -17 57 -93 177 -57 90 -111 168 -120 174 -11 6 -22 4 -34 -7 -16 -14
-20 -10 -59 53 -24 38 -48 71 -55 74 -34 12 -77 -8 -248 -116 -102 -64 -191
-117 -196 -117 -6 0 -32 32 -58 72 -36 54 -45 75 -38 87 15 24 40 25 48 1 11
-33 62 -61 93 -49 23 9 105 59 333 203 52 34 104 66 115 73 128 78 216 138
224 153 15 29 12 59 -9 89 -20 27 -20 28 0 44 37 32 11 64 -30 38 -11 -7 -22
1 -43 30 -41 56 -69 53 -193 -26z m192 -60 c24 -38 42 -76 41 -83 -2 -8 -48
-42 -103 -77 -364 -230 -535 -335 -547 -335 -13 0 -29 21 -83 108 -20 34 -24
47 -15 57 7 8 84 60 173 115 89 56 227 143 307 195 80 51 154 93 164 92 12 -1
36 -28 63 -72z m37 -742 c42 -67 76 -126 76 -130 0 -4 -13 -15 -29 -25 -36
-20 -32 -25 -131 136 l-74 119 29 23 c36 29 29 35 129 -123z"/>
<path d="M175 860 c-8 -13 74 -149 98 -164 31 -19 38 11 14 53 -12 20 -33 56
-47 79 -24 40 -52 54 -65 32z"/>
</g>
</svg>
